# xmcd
#
# Track frame offsets: 
#        150
#        21400
#        38197
#        55105
#        78412
#        97175
#        111605
#        129855
#        150377
#        165367
#
# Disc length: 2427 seconds
#
# Revision: 1
# Processed by: cddbd v1.5.1PL2 Copyright (c) Steve Scherf et al.
# Submitted via: ExactAudioCopy v0.95b4
#
DISCID=7809790a
DTITLE=Son Volt - Straightaways
DYEAR=1997
DGENRE=Country
TTITLE0=Caryatid Easy
TTITLE1=Back Into Your World
TTITLE2=Picking Up The Signal
TTITLE3=Left A Slide
TTITLE4=Creosote
TTITLE5=Cemetery Savior
TTITLE6=Last Minute Shakedown
TTITLE7=Been Set Free
TTITLE8=No More Parades
TTITLE9=Way Down Watson
EXTD=9362-46518-2
EXTT0=
EXTT1=
EXTT2=
EXTT3=
EXTT4=
EXTT5=
EXTT6=
EXTT7=
EXTT8=
EXTT9=
PLAYORDER=
